<?xml version="1.0" standalone="no"?>
<!DOCTYPE svg PUBLIC "-//W3C//DTD SVG 20010904//EN"
 "http://www.w3.org/TR/2001/REC-SVG-20010904/DTD/svg10.dtd">
<svg version="1.0" xmlns="http://www.w3.org/2000/svg"
 width="560.000000pt" height="560.000000pt" viewBox="0 0 560.000000 560.000000"
 preserveAspectRatio="xMidYMid meet">
<metadata>
Created by potrace 1.14, written by Peter Selinger 2001-2017
</metadata>
<g transform="translate(0.000000,560.000000) scale(0.100000,-0.100000)"
fill="#000000" stroke="none">
<path d="M3116 5244 c-46 -26 -132 -53 -219 -69 -89 -17 -84 -16 -297 -40
-207 -23 -275 -39 -417 -96 -18 -8 -33 -17 -33 -21 0 -4 -6 -8 -14 -8 -20 0
-141 -84 -211 -145 -125 -110 -233 -302 -260 -464 -3 -19 -7 -37 -9 -40 -4 -7
-14 -75 -26 -181 -5 -41 -7 -170 -6 -287 l3 -211 -52 -26 c-28 -14 -56 -31
-62 -38 -17 -21 -27 -150 -27 -368 -1 -172 2 -210 15 -235 26 -46 74 -92 116
-110 58 -25 68 -31 68 -41 3 -38 21 -122 42 -189 90 -286 268 -507 525 -652
52 -29 68 -43 68 -60 0 -18 -7 -23 -37 -28 -270 -42 -409 -94 -506 -191 -45
-46 -84 -122 -93 -186 -6 -48 -6 -48 -80 -83 -177 -85 -388 -260 -514 -425
-196 -259 -290 -548 -290 -897 l0 -153 2000 0 2001 0 -2 157 c-2 293 -61 522
-190 746 -134 230 -378 458 -611 570 -75 36 -76 37 -83 83 -16 107 -78 194
-185 258 -91 56 -206 89 -412 121 -32 5 -38 10 -38 30 0 15 7 26 20 30 79 25
311 218 398 331 100 130 177 318 218 532 3 13 12 25 22 28 40 12 88 41 115 69
60 62 62 71 61 295 0 229 -10 348 -30 370 -7 8 -43 29 -79 45 l-67 30 8 70
c13 114 12 433 -2 535 -13 99 -51 268 -64 285 -4 6 -11 21 -15 34 -26 85 -149
222 -298 335 -43 32 -81 65 -84 73 -3 7 3 37 14 66 35 95 17 105 -109 58 l-77
-29 12 32 c13 32 12 66 -2 66 -18 0 -79 -25 -113 -47 -52 -32 -60 -29 -35 15
34 63 7 90 -57 56z"/>
</g>
</svg>
